<?xml version="1.0" encoding="UTF-8" standalone="no"?>
<svg
   width="117.58984pt"
   height="28.351562pt"
   viewBox="0 0 117.58984 28.351562"
   version="1.1"
   id="svg40"
   sodipodi:docname="zurich_light.svg"
   inkscape:version="1.2.2 (732a01da63, 2022-12-09)"
   xmlns:inkscape="http://www.inkscape.org/namespaces/inkscape"
   xmlns:sodipodi="http://sodipodi.sourceforge.net/DTD/sodipodi-0.dtd"
   xmlns="http://www.w3.org/2000/svg"
   xmlns:svg="http://www.w3.org/2000/svg">
  <sodipodi:namedview
     id="namedview42"
     pagecolor="#ffffff"
     bordercolor="#000000"
     borderopacity="0.25"
     inkscape:showpageshadow="2"
     inkscape:pageopacity="0.0"
     inkscape:pagecheckerboard="0"
     inkscape:deskcolor="#d1d1d1"
     inkscape:document-units="pt"
     showgrid="false"
     inkscape:zoom="8.3262712"
     inkscape:cx="78.666667"
     inkscape:cy="18.495674"
     inkscape:window-width="3200"
     inkscape:window-height="1734"
     inkscape:window-x="2391"
     inkscape:window-y="-9"
     inkscape:window-maximized="1"
     inkscape:current-layer="svg40" />
  <defs
     id="defs29">
    <clipPath
       id="clip1">
      <path
         d="M 0,0.648438 H 29 V 29 H 0 Z m 0,0"
         id="path23" />
    </clipPath>
    <clipPath
       id="clip2">
      <path
         d="m 38,7 h 79.58984 V 23 H 38 Z m 0,0"
         id="path26" />
    </clipPath>
  </defs>
  <g
     id="surface1"
     transform="translate(0,-0.648438)">
    <g
       clip-path="url(#clip1)"
       clip-rule="nonzero"
       id="g33">
      <path
         style="fill:#2167ae;fill-opacity:1;fill-rule:nonzero;stroke:none"
         d="M 14.175781,0.648438 C 6.34375,0.648438 0,6.992188 0,14.824219 c 0,3.234375 1.082031,6.210937 2.902344,8.59375 L 14.6875,7.933594 h -2.527344 c -1.34375,0 -2.605468,0.09375 -3.515625,0.273437 C 8.09375,8.3125 7.601562,8.511719 7.199219,8.792969 6.730469,9.125 6.140625,9.824219 5.757812,10.511719 5.714844,10.59375 5.648438,10.707031 5.566406,10.878906 L 4.875,10.722656 6.03125,6.277344 H 20.792969 L 9.066406,21.957031 C 9.824219,21.890625 10.132812,21.875 10.75,21.875 c 0.476562,0 1.199219,0.03125 2.164062,0.08594 l 2.082032,0.128906 c 0.75,0.04297 1.386718,0.0625 1.871094,0.0625 1.074218,0 1.769531,-0.08203 2.464843,-0.292969 0.539063,-0.164063 1.050781,-0.414063 1.515625,-0.734375 0.824219,-0.570312 1.625,-1.480469 2.105469,-2.394531 0.04687,-0.09375 0.125,-0.238281 0.210937,-0.425781 l 0.625,0.164062 c -0.203124,0.773438 -0.3125,1.074219 -0.621093,1.765625 -0.632813,1.410156 -1.34375,2.351563 -2.320313,3.074219 -1.003906,0.746094 -2.117187,1.109375 -3.433594,1.132812 h -0.199218 c -0.976563,0 -1.726563,-0.07813 -4.0625,-0.433594 -2.371094,-0.367187 -3.578125,-0.492187 -4.773438,-0.492187 -0.796875,0 -1.539062,0.05859 -2.308594,0.1875 C 5.054688,23.863281 4.65625,23.984375 3.730469,24.40625 6.316406,27.226562 10.042969,29 14.175781,29 c 7.828125,0 14.175781,-6.347656 14.175781,-14.175781 0,-7.832031 -6.347656,-14.175781 -14.175781,-14.175781"
         id="path31" />
    </g>
    <g
       clip-path="url(#clip2)"
       clip-rule="nonzero"
       id="g37">
      <path
         style="fill:#2167ae;fill-opacity:1;fill-rule:nonzero;stroke:none"
         d="m 63.691406,8.46875 c 0.08594,0.148438 0.160156,0.304688 0.203125,0.46875 0.09766,0.335938 0.125,0.671875 0.125,1.449219 v 5.25 c 0,1.128906 -0.03516,1.792969 -0.117187,2.34375 -0.05469,0.367187 -0.179688,0.710937 -0.359375,1.015625 -0.332031,0.558594 -0.953125,0.992187 -1.695313,1.179687 -0.296875,0.07422 -0.625,0.113281 -0.980468,0.113281 -1.183594,0 -2.203126,-0.445312 -2.695313,-1.167968 -0.382813,-0.566406 -0.488281,-1.101563 -0.503906,-2.523438 l -0.0078,-1.136718 v -4.164063 c 0,-0.808594 0.0039,-1.191406 0.03125,-1.605469 0.01563,-0.242187 0.05078,-0.460937 0.101563,-0.632812 0.09766,-0.316406 0.332031,-0.738282 0.554687,-1 0.03125,-0.027344 0.0625,-0.066406 0.117188,-0.121094 h -4.488282 c 0.273438,0.230469 0.363282,0.332031 0.5,0.558594 0.08594,0.152344 0.152344,0.3125 0.191407,0.480468 0.05469,0.207032 0.08984,0.421876 0.09766,0.636719 0,0.132813 0.0039,0.421875 0.0039,0.855469 l 0.0078,0.796875 v 3.957031 c 0,1.472656 0.0039,1.84375 0.05469,2.433594 0.07813,1.007812 0.382813,1.8125 0.964844,2.542969 1.046875,1.316406 2.730469,2.003906 4.871094,2.003906 1.027343,0 2.019531,-0.152344 2.777343,-0.433594 0.792969,-0.296875 1.527344,-0.789062 2.050782,-1.375 0.644531,-0.714843 1.007812,-1.59375 1.117187,-2.679687 0.07031,-0.632813 0.09375,-1.386719 0.09375,-2.46875 v -3.972656 l -0.0078,-0.789063 v -0.15625 c 0,-0.59375 0.03125,-0.9375 0.117187,-1.257813 0.04687,-0.199218 0.128906,-0.386718 0.238282,-0.558593 0.144531,-0.234375 0.25,-0.34375 0.539062,-0.574219 h -4.402344 c 0.269532,0.210938 0.359375,0.308594 0.5,0.53125 M 48.546875,19.800781 C 47.933594,19.914062 47.242188,19.976562 46.378906,20 c -0.289062,0.0078 -0.652344,0.0078 -1.105468,0.0078 H 43.160156 L 51.53125,7.933594 H 40.667969 l -1.332031,2.945312 c 0.445312,-0.234375 0.625,-0.320312 1.007812,-0.472656 0.621094,-0.246094 1.300781,-0.441406 1.957031,-0.554688 0.566407,-0.097656 1.09375,-0.140624 1.945313,-0.167968 0.382812,-0.011719 0.742187,-0.019532 1.074218,-0.019532 h 1.605469 l -8.449219,12.078126 h 11.945313 l 1.375,-3.148438 c -0.476563,0.277344 -0.648437,0.367188 -1.011719,0.53125 -0.699218,0.316406 -1.449218,0.546875 -2.238281,0.675781 m 68.125005,-9.316406 c 0,-0.613281 0.0508,-1.082031 0.15625,-1.464844 0.0469,-0.175781 0.12109,-0.347656 0.21875,-0.507812 0.14062,-0.238281 0.25,-0.351563 0.54296,-0.578125 h -4.5039 c 0.25781,0.21875 0.34765,0.316406 0.5039,0.558594 0.0977,0.160156 0.17579,0.324218 0.23047,0.484374 0.10547,0.324219 0.14844,0.730469 0.14844,1.453126 v 3.351562 h -6.19141 v -2.515625 c 0,-0.765625 0.004,-1.265625 0.0352,-1.640625 0.0195,-0.222656 0.0547,-0.421875 0.11328,-0.597656 0.0937,-0.300782 0.34766,-0.710938 0.57031,-0.945313 0.0273,-0.035156 0.0859,-0.085937 0.15235,-0.148437 h -4.42188 c 0.26172,0.273437 0.33203,0.355468 0.45313,0.53125 0.0937,0.140625 0.17969,0.296875 0.23828,0.464844 0.11328,0.351562 0.13672,0.542968 0.14844,1.464843 l 0.0195,0.871094 v 7.566406 c 0,0.765625 -0.0195,1.101563 -0.0586,1.449219 -0.0273,0.179688 -0.0742,0.363281 -0.13671,0.554688 -0.11719,0.296874 -0.27344,0.527343 -0.53516,0.769531 -0.0312,0.03125 -0.082,0.07813 -0.15234,0.136719 h 4.375 c -0.19141,-0.195313 -0.25782,-0.28125 -0.3711,-0.453126 -0.082,-0.132812 -0.16015,-0.273437 -0.22265,-0.429687 -0.14063,-0.367187 -0.1836,-0.628906 -0.20313,-1.210937 -0.004,-0.292969 -0.004,-0.5625 -0.004,-0.824219 v -3.347657 h 6.19141 v 3.371094 c 0,0.746094 -0.008,1.015625 -0.0664,1.402344 -0.0195,0.210938 -0.0664,0.414062 -0.14453,0.597656 -0.10156,0.257813 -0.26172,0.496094 -0.5,0.726563 -0.0391,0.03125 -0.0977,0.09375 -0.1875,0.167969 h 4.41016 c -0.18359,-0.179688 -0.25,-0.257813 -0.36719,-0.425782 -0.10937,-0.152344 -0.19531,-0.300781 -0.25781,-0.453125 -0.13281,-0.328125 -0.16797,-0.570312 -0.18359,-1.25 -0.008,-0.402343 -0.008,-0.640625 -0.008,-0.710937 l 0.008,-7.601563 z M 100.41406,19.75 c -0.828122,0.347656 -1.593748,0.507812 -2.410154,0.507812 -1.429687,0 -2.652344,-0.507812 -3.554687,-1.480468 -0.898438,-0.972656 -1.378907,-2.3125 -1.378907,-3.828125 0,-1.449219 0.449219,-2.792969 1.246094,-3.730469 0.347656,-0.40625 0.765625,-0.75 1.253906,-1.023438 0.777344,-0.433593 1.6875,-0.660156 2.671876,-0.660156 0.839843,0 1.65625,0.164063 2.476562,0.496094 0.51563,0.210938 0.69922,0.3125 1.13672,0.625 V 8.058594 c -0.33594,-0.109375 -0.47266,-0.148438 -0.83594,-0.226563 -0.80078,-0.167969 -1.562499,-0.242187 -2.433592,-0.242187 -1.484376,0 -2.765626,0.238281 -3.933594,0.730468 -0.699219,0.292969 -1.332032,0.671876 -1.898438,1.128907 -1.703125,1.371093 -2.632812,3.351562 -2.632812,5.644531 0,2.21875 0.898437,4.136719 2.527344,5.425781 1.34375,1.0625 3.074218,1.597657 5.15625,1.597657 1.300781,0 2.515622,-0.191407 3.875002,-0.617188 0.0547,-0.01953 0.1289,-0.04297 0.22656,-0.07422 v -2.503906 c -0.33594,0.21875 -0.44141,0.289063 -0.64062,0.40625 -0.26954,0.152344 -0.55079,0.296875 -0.85157,0.421875 M 87.160156,10.488281 C 87.164062,9.566406 87.1875,9.3125 87.304688,8.9375 87.355469,8.789062 87.421875,8.644531 87.507812,8.507812 87.648438,8.273438 87.75,8.160156 88.023438,7.933594 H 83.59375 c 0.285156,0.246094 0.378906,0.347656 0.511719,0.542968 0.08984,0.144532 0.164062,0.296876 0.210937,0.453126 0.101563,0.332031 0.140625,0.664062 0.148438,1.488281 0,0.417969 0,0.695312 0,0.832031 v 8.269531 c 0,0.484375 -0.08594,1 -0.21875,1.335938 -0.05469,0.140625 -0.128906,0.277343 -0.21875,0.402343 -0.101563,0.148438 -0.179688,0.234376 -0.421875,0.484376 h 4.382812 C 87.773438,21.558594 87.695312,21.472656 87.5625,21.257812 87.46875,21.125 87.398438,20.976562 87.34375,20.835938 87.222656,20.519531 87.15625,20.0625 87.15625,19.625 v -8.324219 z m -5.773437,10.300781 c -0.484375,-0.464843 -0.921875,-0.90625 -1.5625,-1.601562 -0.414063,-0.445312 -0.746094,-0.824219 -1.007813,-1.128906 l -2.148437,-2.523438 c 0.265625,-0.07813 0.375,-0.117187 0.613281,-0.210937 0.695312,-0.277344 1.226562,-0.582031 1.703125,-0.984375 0.546875,-0.460938 0.882813,-0.953125 1.089844,-1.578125 0.113281,-0.351563 0.167969,-0.703125 0.167969,-1.0625 0,-0.851563 -0.3125,-1.621094 -0.933594,-2.265625 C 78.742188,8.835938 77.953125,8.398438 77.066406,8.1875 76.445312,8.042969 75.804688,7.976562 74.707031,7.949219 74.289062,7.9375 73.859375,7.933594 73.421875,7.933594 h -3.5625 c 0.238281,0.222656 0.328125,0.320312 0.460937,0.519531 0.101563,0.160156 0.191407,0.328125 0.242188,0.503906 0.09375,0.308594 0.132812,0.738281 0.132812,1.472657 v 9.058593 c 0,0.65625 -0.03906,1.03125 -0.152343,1.339844 -0.0625,0.152344 -0.140625,0.300781 -0.238281,0.433594 -0.128907,0.164062 -0.210938,0.25 -0.464844,0.480469 h 4.390625 C 74.03125,21.53125 73.972656,21.460938 73.847656,21.292969 73.75,21.164062 73.671875,21.019531 73.613281,20.875 73.492188,20.566406 73.441406,20.238281 73.4375,19.597656 73.4297,19.390625 73.42578,19.160156 73.42578,18.90625 v -3.105469 l 2.5625,3.066407 c 0.121094,0.148437 0.3125,0.367187 0.570313,0.667968 0.300781,0.335938 0.523437,0.589844 0.675781,0.742188 0.496094,0.511718 0.964844,0.882812 1.425781,1.136718 0.402344,0.210938 0.773438,0.300782 1.371094,0.320313 0.226562,0.0078 0.464844,0.0078 0.722656,0.0078 h 1.730469 c -0.230468,-0.179675 -0.328124,-0.261706 -0.503905,-0.41405 -0.1875,-0.164063 -0.386719,-0.339844 -0.59375,-0.539063 m -5.273438,-6.773437 c -0.492187,0.289063 -0.996093,0.453125 -1.738281,0.558594 -0.28125,0.04297 -0.527344,0.06641 -0.722656,0.06641 -0.07031,0 -0.121094,0 -0.226563,-0.01172 V 9.519531 c 0.179688,-0.00391 0.246094,-0.00391 0.363281,-0.00391 0.675782,0 1.339844,0.078125 1.859376,0.226563 0.347656,0.097656 0.671874,0.273437 0.9375,0.5 0.464843,0.398437 0.707031,0.976562 0.707031,1.695312 0,0.628906 -0.179688,1.160156 -0.535157,1.558594 -0.167968,0.195312 -0.386718,0.363281 -0.644531,0.519531"
         id="path35" />
    </g>
  </g>
</svg>
